HIERARCHY
ROOT reference
{
  OFFSET 0 0 0
  CHANNELS 6 Xposition Yposition Zposition Zrotation Xrotation Yrotation
  JOINT Hips
  {
    OFFSET 352.076 86.5813 226.294
    CHANNELS 3 Zrotation Xrotation Yrotation
    JOINT RightUpLeg
    {
      OFFSET -9.24446 -1.53332 -0.0100408
      CHANNELS 3 Zrotation Xrotation Yrotation
      JOINT RightLeg
      {
        OFFSET 0.0379954 -41.8775 0.0555708
        CHANNELS 3 Zrotation Xrotation Yrotation
        JOINT RightFoot
        {
          OFFSET 0.0737403 -43.7597 -0.208372
          CHANNELS 3 Zrotation Xrotation Yrotation
          End Site
          {
            OFFSET 0 -7.69 17.5
          }
        }
      }
    }
    JOINT LeftUpLeg
    {
      OFFSET 9.31004 -1.65148 -0.0333589
      CHANNELS 3 Zrotation Xrotation Yrotation
      JOINT LeftLeg
      {
        OFFSET 0.0881386 -41.8624 -0.0616493
        CHANNELS 3 Zrotation Xrotation Yrotation
        JOINT LeftFoot
        {
          OFFSET 0.763074 -39.9619 0.249975
          CHANNELS 3 Zrotation Xrotation Yrotation
          End Site
          {
            OFFSET 0 -7.69 17.5
          }
        }
      }
    }
    JOINT Spine
    {
      OFFSET 0.105097 14.2958 0.096313
      CHANNELS 3 Zrotation Xrotation Yrotation
      JOINT Spine1
      {
        OFFSET 0.0609256 9.72986 0.0283835
        CHANNELS 3 Zrotation Xrotation Yrotation
        JOINT Spine2
        {
          OFFSET 0.0349843 10.1145 -0.0203086
          CHANNELS 3 Zrotation Xrotation Yrotation
          JOINT Spine3
          {
            OFFSET 0.0323734 9.71864 0.0196425
            CHANNELS 3 Zrotation Xrotation Yrotation
            JOINT Neck
            {
              OFFSET 0.219168 10.3708 0.0833364
              CHANNELS 3 Zrotation Xrotation Yrotation
              JOINT Head
              {
                OFFSET 0.200748 9.48753 0.0966912
                CHANNELS 3 Zrotation Xrotation Yrotation
                End Site
                {
                  OFFSET 0 15.95 0
                }
              }
            }
            JOINT RightShoulder
            {
              OFFSET -3.14734 6.94135 0.063802
              CHANNELS 3 Zrotation Xrotation Yrotation
              JOINT RightArm
              {
                OFFSET -12.765 0.137663 0.228635
                CHANNELS 3 Zrotation Xrotation Yrotation
                JOINT RightForeArm
                {
                  OFFSET -26.5344 -0.389186 -0.00603507
                  CHANNELS 3 Zrotation Xrotation Yrotation
                  JOINT RightHand
                  {
                    OFFSET -26.1352 -0.0585664 0.0704552
                    CHANNELS 3 Zrotation Xrotation Yrotation
                    JOINT RightHandThumb1
                    {
                      OFFSET -2.48905 0.190105 3.12053
                      CHANNELS 3 Zrotation Xrotation Yrotation
                      JOINT RightHandThumb2
                      {
                        OFFSET -3.68274 0 0
                        CHANNELS 3 Zrotation Xrotation Yrotation
                        JOINT RightHandThumb3
                        {
                          OFFSET -2.55832 0 0
                          CHANNELS 3 Zrotation Xrotation Yrotation
                          End Site
                          {
                            OFFSET -2.194 0 0
                          }
                        }
                      }
                    }
                    JOINT RightInHandIndex
                    {
                      OFFSET -3.22368 0.508421 1.97842
                      CHANNELS 3 Zrotation Xrotation Yrotation
                      JOINT RightHandIndex1
                      {
                        OFFSET -5.21684 -0.091368 0.999158
                        CHANNELS 3 Zrotation Xrotation Yrotation
                        JOINT RightHandIndex2
                        {
                          OFFSET -3.61937 0 0
                          CHANNELS 3 Zrotation Xrotation Yrotation
                          JOINT RightHandIndex3
                          {
                            OFFSET -2.0521 0 0
                            CHANNELS 3 Zrotation Xrotation Yrotation
                            End Site
                            {
                              OFFSET -1.805 0 0
                            }
                          }
                        }
                      }
                    }
                    JOINT RightInHandMiddle
                    {
                      OFFSET -3.38211 0.517263 0.756737
                      CHANNELS 3 Zrotation Xrotation Yrotation
                      JOINT RightHandMiddle1
                      {
                        OFFSET -5.17411 -0.084 0.313895
                        CHANNELS 3 Zrotation Xrotation Yrotation
                        JOINT RightHandMiddle2
                        {
                          OFFSET -3.94947 0 0
                          CHANNELS 3 Zrotation Xrotation Yrotation
                          JOINT RightHandMiddle3
                          {
                            OFFSET -2.47579 0 0
                            CHANNELS 3 Zrotation Xrotation Yrotation
                            End Site
                            {
                              OFFSET -1.975 0 0
                            }
                          }
                        }
                      }
                    }
                    JOINT RightInHandRing
                    {
                      OFFSET -3.36516 0.537895 -0.128947
                      CHANNELS 3 Zrotation Xrotation Yrotation
                      JOINT RightHandRing1
                      {
                        OFFSET -4.63474 -0.022105 -0.478947
                        CHANNELS 3 Zrotation Xrotation Yrotation
                        JOINT RightHandRing2
                        {
                          OFFSET -3.44238 0 0
                          CHANNELS 3 Zrotation Xrotation Yrotation
                          JOINT RightHandRing3
                          {
                            OFFSET -2.3881 0 0
                            CHANNELS 3 Zrotation Xrotation Yrotation
                            End Site
                            {
                              OFFSET -1.857 0 0
                            }
                          }
                        }
                      }
                    }
                    JOINT RightInHandPinky
                    {
                      OFFSET -3.16105 0.469368 -1.20179
                      CHANNELS 3 Zrotation Xrotation Yrotation
                      JOINT RightHandPinky1
                      {
                        OFFSET -4.14105 -0.022105 -1.09053
                        CHANNELS 3 Zrotation Xrotation Yrotation
                        JOINT RightHandPinky2
                        {
                          OFFSET -2.75653 0 0
                          CHANNELS 3 Zrotation Xrotation Yrotation
                          JOINT RightHandPinky3
                          {
                            OFFSET -1.74189 0 0
                            CHANNELS 3 Zrotation Xrotation Yrotation
                            End Site
                            {
                              OFFSET -1.645 0 0
                            }
                          }
                        }
                      }
                    }
                  }
                }
              }
            }
            JOINT LeftShoulder
            {
              OFFSET 3.26179 6.89719 -0.0373062
              CHANNELS 3 Zrotation Xrotation Yrotation
              JOINT LeftArm
              {
                OFFSET 12.4839 0.0196156 -0.0323257
                CHANNELS 3 Zrotation Xrotation Yrotation
                JOINT LeftForeArm
                {
                  OFFSET 26.5039 -0.120667 0.247609
                  CHANNELS 3 Zrotation Xrotation Yrotation
                  JOINT LeftHand
                  {
                    OFFSET 25.9984 -0.032285 0.00286418
                    CHANNELS 3 Zrotation Xrotation Yrotation
                    JOINT LeftHandThumb1
                    {
                      OFFSET 2.48905 0.190105 3.12053
                      CHANNELS 3 Zrotation Xrotation Yrotation
                      JOINT LeftHandThumb2
                      {
                        OFFSET 3.68274 0 0
                        CHANNELS 3 Zrotation Xrotation Yrotation
                        JOINT LeftHandThumb3
                        {
                          OFFSET 2.55832 0 0
                          CHANNELS 3 Zrotation Xrotation Yrotation
                          End Site
                          {
                            OFFSET 2.194 0 0
                          }
                        }
                      }
                    }
                    JOINT LeftInHandIndex
                    {
                      OFFSET 3.22368 0.508421 1.97842
                      CHANNELS 3 Zrotation Xrotation Yrotation
                      JOINT LeftHandIndex1
                      {
                        OFFSET 5.21684 -0.091368 0.999158
                        CHANNELS 3 Zrotation Xrotation Yrotation
                        JOINT LeftHandIndex2
                        {
                          OFFSET 3.61937 0 0
                          CHANNELS 3 Zrotation Xrotation Yrotation
                          JOINT LeftHandIndex3
                          {
                            OFFSET 2.0521 0 0
                            CHANNELS 3 Zrotation Xrotation Yrotation
                            End Site
                            {
                              OFFSET 1.805 0 0
                            }
                          }
                        }
                      }
                    }
                    JOINT LeftInHandMiddle
                    {
                      OFFSET 3.38211 0.517263 0.756737
                      CHANNELS 3 Zrotation Xrotation Yrotation
                      JOINT LeftHandMiddle1
                      {
                        OFFSET 5.17411 -0.084 0.313895
                        CHANNELS 3 Zrotation Xrotation Yrotation
                        JOINT LeftHandMiddle2
                        {
                          OFFSET 3.94947 0 0
                          CHANNELS 3 Zrotation Xrotation Yrotation
                          JOINT LeftHandMiddle3
                          {
                            OFFSET 2.47579 0 0
                            CHANNELS 3 Zrotation Xrotation Yrotation
                            End Site
                            {
                              OFFSET 1.975 0 0
                            }
                          }
                        }
                      }
                    }
                    JOINT LeftInHandRing
                    {
                      OFFSET 3.36516 0.537895 -0.128947
                      CHANNELS 3 Zrotation Xrotation Yrotation
                      JOINT LeftHandRing1
                      {
                        OFFSET 4.63474 -0.022105 -0.478947
                        CHANNELS 3 Zrotation Xrotation Yrotation
                        JOINT LeftHandRing2
                        {
                          OFFSET 3.44238 0 0
                          CHANNELS 3 Zrotation Xrotation Yrotation
                          JOINT LeftHandRing3
                          {
                            OFFSET 2.3881 0 0
                            CHANNELS 3 Zrotation Xrotation Yrotation
                            End Site
                            {
                              OFFSET 1.857 0 0
                            }
                          }
                        }
                      }
                    }
                    JOINT LeftInHandPinky
                    {
                      OFFSET 3.16105 0.469368 -1.20179
                      CHANNELS 3 Zrotation Xrotation Yrotation
                      JOINT LeftHandPinky1
                      {
                        OFFSET 4.14105 -0.022105 -1.09053
                        CHANNELS 3 Zrotation Xrotation Yrotation
                        JOINT LeftHandPinky2
                        {
                          OFFSET 2.75653 0 0
                          CHANNELS 3 Zrotation Xrotation Yrotation
                          JOINT LeftHandPinky3
                          {
                            OFFSET 1.74189 0 0
                            CHANNELS 3 Zrotation Xrotation Yrotation
                            End Site
                            {
                              OFFSET 1.645 0 0
                            }
                          }
                        }
                      }
                    }
                  }
                }
              }
            }
          }
        }
      }
    }
  }
}
MOTION
Frames: 2
Frame Time: 0.00833333
4.500000000000000000e+02 0.000000000000000000e+00 0.000000000000000000e+00 0.000000000000000000e+00 0.000000000000000000e+00 0.000000000000000000e+00 -9.130782583994131313e-03 -9.730724452201734709e-02 4.164887772618071360e-02 1.428445842170900483e-03 9.420128394198169601e-04 1.787161490245510465e-01 2.845225701411820407e-01 -1.319749252954098284e-01 -2.773692815962711666e-01 -1.850999416405040565e-01 1.983247096583811986e-01 2.329301654302244617e-02 -9.896299027045601937e-02 2.424185928903382914e-01 -4.076847759713688180e-01 -3.439920577876660057e-01 -2.624535942828083723e-02 4.774263906552789205e-01 -1.727521581076534585e-01 -1.322597256722518322e-01 -9.302579604161113902e-02 4.775747907342054593e-02 5.765603229434670268e-02 4.822203567071733227e-02 1.493753050301199585e-02 1.520326234324630241e-03 1.507046108177911847e-02 2.153514407674777739e-02 -4.050515398695844760e-03 3.023642122157316897e-02 -6.122040613052543226e-03 -2.118470274486420040e-03 -9.751580003833715607e-03 -3.894097236274918217e-02 -2.126151325458544225e-02 -4.215723740448032442e-01 -1.566011974707401389e-01 -3.817656081616096347e-02 2.836333006031777765e-02 9.336169731587483367e-02 -6.935074728254102261e-02 -5.063636062344301081e-01 3.777558448766921151e-01 6.987009674319419328e-02 2.590718178032157537e-01 -1.362053706406426701e-01 9.550753814606219860e-01 -6.247059996007656713e-01 -2.117457771647496267e-01 1.077738106500491622e+00 -2.725820031149459033e-01 0.000000000000000000e+00 0.000000000000000000e+00 0.000000000000000000e+00 4.451408860864265453e-15 6.589281733875584624e-15 0.000000000000000000e+00 2.414630494509816686e-15 4.371021338061306811e-15 0.000000000000000000e+00 -2.044865661663492317e-15 1.827837893381831438e-15 -1.281841619937119151e-16 0.000000000000000000e+00 0.000000000000000000e+00 0.000000000000000000e+00 0.000000000000000000e+00 1.857742612399671893e-15 6.303222126452949170e-16 0.000000000000000000e+00 -4.091494708257174226e-16 6.121518899259392261e-17 -2.044865661663492317e-15 1.827837893381831438e-15 -1.281841619937119151e-16 0.000000000000000000e+00 -5.094558147701162326e-16 -8.463172729083824560e-16 0.000000000000000000e+00 -4.981530396754116078e-16 -4.345288457247471654e-16 0.000000000000000000e+00 1.601172248510933467e-15 -7.913685610621337531e-17 -2.044865661663492317e-15 1.827837893381831438e-15 -1.281841619937119151e-16 0.000000000000000000e+00 0.000000000000000000e+00 0.000000000000000000e+00 0.000000000000000000e+00 -1.517818185976132945e-15 -1.599083910926877868e-15 0.000000000000000000e+00 1.179544586510837643e-15 2.222863506710122602e-16 -2.044865661663492317e-15 1.827837893381831438e-15 -1.281841619937119151e-16 0.000000000000000000e+00 0.000000000000000000e+00 0.000000000000000000e+00 0.000000000000000000e+00 -1.311313978631103946e-15 -4.560770925128443896e-15 0.000000000000000000e+00 -3.752374416677850216e-15 -5.068912244629527799e-16 -8.154047198754707515e-02 -1.094910681221927945e-01 -1.444409729431526956e-02 -2.003500545626178686e-01 9.504830014381998593e-02 5.090170602567872793e-01 -2.461493372391852397e+00 3.145700215012331435e-01 -3.067848498969961035e+00 8.031114245886113168e-02 4.879249994795623740e-02 1.720458275597590569e-01 0.000000000000000000e+00 0.000000000000000000e+00 0.000000000000000000e+00 5.151246972965937133e-15 -3.007163873433867967e-15 0.000000000000000000e+00 2.919647742126005812e-15 -4.872901499792216883e-15 0.000000000000000000e+00 2.103259501713341470e-15 -1.795200245142953348e-16 1.549747807039289048e-15 0.000000000000000000e+00 0.000000000000000000e+00 0.000000000000000000e+00 0.000000000000000000e+00 1.406394354729862833e-15 1.111655649309735464e-15 0.000000000000000000e+00 -1.086345546011387330e-15 -2.382226817595342951e-16 2.103259501713341470e-15 -1.795200245142953348e-16 1.549747807039289048e-15 0.000000000000000000e+00 -2.397837095412281744e-16 7.461247511038242869e-16 0.000000000000000000e+00 2.669406352271840116e-15 7.521347098229142323e-16 0.000000000000000000e+00 1.820928323018442242e-15 -1.473968474794083091e-15 2.103259501713341470e-15 -1.795200245142953348e-16 1.549747807039289048e-15 0.000000000000000000e+00 0.000000000000000000e+00 0.000000000000000000e+00 0.000000000000000000e+00 -1.592852329507338628e-15 -4.178372963729002348e-16 0.000000000000000000e+00 1.004851504402271685e-15 6.894807325899938241e-17 2.103259501713341470e-15 -1.795200245142953348e-16 1.549747807039289048e-15 0.000000000000000000e+00 0.000000000000000000e+00 0.000000000000000000e+00 0.000000000000000000e+00 2.198316153913219656e-16 -7.255034364862863512e-16 0.000000000000000000e+00 1.948917040159311361e-16 -3.529080048765437947e-15
4.500000000000000000e+02 0.000000000000000000e+00 0.000000000000000000e+00 0.000000000000000000e+00 0.000000000000000000e+00 0.000000000000000000e+00 -1.964621653004143889e-02 -1.030256012965179713e-01 1.401698194931012657e-02 8.100171185946497543e-03 1.581004935358903268e-02 2.010183369493317718e-01 3.223026557110967860e-01 -1.786764717235292954e-01 -3.609347029341927748e-01 -2.276747730502092226e-01 2.552240720477531588e-01 8.788948666278406652e-02 -1.002621847078343092e-01 2.457912014277852386e-01 -4.138623934559627071e-01 -4.151659440994717731e-01 1.802943603863453245e-02 5.850044584928468794e-01 -1.815298163071677462e-01 -1.850772392939492306e-01 -1.483157470756842899e-01 4.604113288962251999e-02 6.373945985662510250e-02 6.686192736471859022e-02 1.436112742189511564e-02 1.531960307201090266e-03 2.030397349164883222e-02 2.095058845398289210e-02 -4.099365910955448007e-03 3.830903864668461223e-02 -5.402348073930561718e-03 -1.882761062101101978e-03 -8.151750048517729039e-03 -3.552408478257627206e-02 -1.188413024565074770e-02 -2.567152812817333762e-01 -1.309110022600726841e-01 -3.350602959948436460e-02 -5.024498784352987579e-02 4.832057695869495378e-02 -1.127846056632921534e-01 -4.297464742030808194e-01 4.960982638996659366e-01 2.692043941133689597e-02 2.090648932229389745e-01 -3.956732765750290981e-01 1.023565051222016242e+00 -7.354194092842075703e-01 -2.060300711961542686e-01 1.204686356387001611e+00 -2.366603123911688311e-01 0.000000000000000000e+00 0.000000000000000000e+00 0.000000000000000000e+00 3.320080669600710934e-15 5.296103949582759134e-15 0.000000000000000000e+00 1.375458762551681922e-15 3.204103368056797674e-15 0.000000000000000000e+00 -1.546661660410864267e-15 2.432467280441766799e-15 -6.758753673422980971e-17 0.000000000000000000e+00 0.000000000000000000e+00 0.000000000000000000e+00 0.000000000000000000e+00 2.420446349548418924e-15 -1.974374471752090547e-16 0.000000000000000000e+00 -3.986683806497705019e-16 4.918363029935410593e-16 -1.546661660410864267e-15 2.432467280441766799e-15 -6.758753673422980971e-17 0.000000000000000000e+00 -7.131884500399100919e-16 -8.466935761425943252e-16 0.000000000000000000e+00 -8.524388499476624446e-16 -5.320472065786720406e-16 0.000000000000000000e+00 1.283703985115702630e-15 1.027733408080830609e-15 -1.546661660410864267e-15 2.432467280441766799e-15 -6.758753673422980971e-17 0.000000000000000000e+00 0.000000000000000000e+00 0.000000000000000000e+00 0.000000000000000000e+00 -1.302837803535119108e-15 -8.355371611051943089e-16 0.000000000000000000e+00 1.155749419543809431e-15 1.587191677333514978e-17 -1.546661660410864267e-15 2.432467280441766799e-15 -6.758753673422980971e-17 0.000000000000000000e+00 0.000000000000000000e+00 0.000000000000000000e+00 0.000000000000000000e+00 -1.332840501246098972e-15 -3.487277433061040446e-15 0.000000000000000000e+00 -2.953458702799324505e-15 -2.998065634183016026e-16 -8.563969583031168231e-02 -1.142131179968551014e-01 -2.606969057696337938e-03 -3.282210208122993689e-01 1.889813093460527837e-01 6.683285657282226344e-01 -2.960348168884718412e+00 5.481703908820857452e-01 -3.714790740165526017e+00 1.090669581165948782e-01 8.359646969423742413e-02 5.852859090121839691e-02 0.000000000000000000e+00 0.000000000000000000e+00 0.000000000000000000e+00 3.993696471087443216e-15 -2.629622181565230122e-15 0.000000000000000000e+00 2.361599821848034455e-15 -4.570382504191007630e-15 0.000000000000000000e+00 2.020175415314380456e-15 -4.505470411475893227e-16 1.881346020986054062e-15 0.000000000000000000e+00 0.000000000000000000e+00 0.000000000000000000e+00 0.000000000000000000e+00 1.416105924296305695e-15 5.821435886212702989e-16 0.000000000000000000e+00 -8.066124285746231676e-16 -4.950260576398143535e-16 2.020175415314380456e-15 -4.505470411475893227e-16 1.881346020986054062e-15 0.000000000000000000e+00 -3.910667896938595486e-16 3.574996779877894784e-16 0.000000000000000000e+00 1.965369195720464665e-15 6.235514625985343263e-16 0.000000000000000000e+00 8.813519568875994461e-16 -1.590888950989638720e-15 2.020175415314380456e-15 -4.505470411475893227e-16 1.881346020986054062e-15 0.000000000000000000e+00 0.000000000000000000e+00 0.000000000000000000e+00 0.000000000000000000e+00 -2.349013444992287360e-15 -7.451503404457512060e-16 0.000000000000000000e+00 1.224710372009940345e-15 -4.720199248615453857e-16 2.020175415314380456e-15 -4.505470411475893227e-16 1.881346020986054062e-15 0.000000000000000000e+00 0.000000000000000000e+00 0.000000000000000000e+00 0.000000000000000000e+00 -5.361239585918661260e-16 -1.607200638872812871e-16 0.000000000000000000e+00 -2.218409916665713038e-16 -2.991557137703872191e-15
